<mxfile host="app.diagrams.net" modified="2024-06-19T07:52:07.573Z" agent="Mozilla/5.0 (Macintosh; Intel Mac OS X 10_15_7) AppleWebKit/537.36 (KHTML, like Gecko) Chrome/126.0.0.0 Safari/537.36" etag="oqTEsLdgzHj01jRuhgFC" version="24.5.4" type="github">
  <diagram name="第 1 页" id="Po6ZQsxpVBsF1I9VUvzo">
    <mxGraphModel dx="1434" dy="761" grid="1" gridSize="10" guides="1" tooltips="1" connect="1" arrows="1" fold="1" page="1" pageScale="1" pageWidth="827" pageHeight="1169" math="0" shadow="0">
      <root>
        <mxCell id="0" />
        <mxCell id="1" parent="0" />
        <mxCell id="nuHjkVe-DKdzuJ_XqGal-1" value="Actor" style="shape=umlActor;verticalLabelPosition=bottom;verticalAlign=top;html=1;" parent="1" vertex="1">
          <mxGeometry x="60" y="340" width="30" height="60" as="geometry" />
        </mxCell>
        <mxCell id="k6RIpt3aH43l9nmS450x-1" value="Config target database" style="ellipse;whiteSpace=wrap;html=1;" vertex="1" parent="1">
          <mxGeometry x="270" y="100" width="140" height="70" as="geometry" />
        </mxCell>
        <mxCell id="k6RIpt3aH43l9nmS450x-2" value="Create monitor task" style="ellipse;whiteSpace=wrap;html=1;" vertex="1" parent="1">
          <mxGeometry x="270" y="280" width="140" height="70" as="geometry" />
        </mxCell>
        <mxCell id="k6RIpt3aH43l9nmS450x-3" value="Save monitor task" style="ellipse;whiteSpace=wrap;html=1;" vertex="1" parent="1">
          <mxGeometry x="270" y="380" width="140" height="70" as="geometry" />
        </mxCell>
        <mxCell id="k6RIpt3aH43l9nmS450x-4" value="Load monitor task" style="ellipse;whiteSpace=wrap;html=1;" vertex="1" parent="1">
          <mxGeometry x="270" y="470" width="140" height="70" as="geometry" />
        </mxCell>
        <mxCell id="k6RIpt3aH43l9nmS450x-5" value="Save configuration" style="ellipse;whiteSpace=wrap;html=1;" vertex="1" parent="1">
          <mxGeometry x="270" y="190" width="140" height="70" as="geometry" />
        </mxCell>
        <mxCell id="k6RIpt3aH43l9nmS450x-6" value="Organize configurations &amp;amp; tasks" style="ellipse;whiteSpace=wrap;html=1;" vertex="1" parent="1">
          <mxGeometry x="274" y="570" width="140" height="70" as="geometry" />
        </mxCell>
        <mxCell id="k6RIpt3aH43l9nmS450x-11" value="" style="endArrow=classic;html=1;rounded=0;entryX=0;entryY=0.5;entryDx=0;entryDy=0;exitX=0.633;exitY=0.267;exitDx=0;exitDy=0;exitPerimeter=0;" edge="1" parent="1" source="nuHjkVe-DKdzuJ_XqGal-1" target="k6RIpt3aH43l9nmS450x-1">
          <mxGeometry width="50" height="50" relative="1" as="geometry">
            <mxPoint x="140" y="320" as="sourcePoint" />
            <mxPoint x="190" y="270" as="targetPoint" />
          </mxGeometry>
        </mxCell>
        <mxCell id="k6RIpt3aH43l9nmS450x-12" value="" style="endArrow=classic;html=1;rounded=0;entryX=0;entryY=0.5;entryDx=0;entryDy=0;exitX=0.5;exitY=0.5;exitDx=0;exitDy=0;exitPerimeter=0;" edge="1" parent="1" source="nuHjkVe-DKdzuJ_XqGal-1" target="k6RIpt3aH43l9nmS450x-5">
          <mxGeometry width="50" height="50" relative="1" as="geometry">
            <mxPoint x="140" y="340" as="sourcePoint" />
            <mxPoint x="190" y="290" as="targetPoint" />
          </mxGeometry>
        </mxCell>
        <mxCell id="k6RIpt3aH43l9nmS450x-13" value="" style="endArrow=classic;html=1;rounded=0;entryX=0;entryY=0.5;entryDx=0;entryDy=0;exitX=0.5;exitY=0.683;exitDx=0;exitDy=0;exitPerimeter=0;" edge="1" parent="1" source="nuHjkVe-DKdzuJ_XqGal-1" target="k6RIpt3aH43l9nmS450x-2">
          <mxGeometry width="50" height="50" relative="1" as="geometry">
            <mxPoint x="140" y="360" as="sourcePoint" />
            <mxPoint x="190" y="310" as="targetPoint" />
          </mxGeometry>
        </mxCell>
        <mxCell id="k6RIpt3aH43l9nmS450x-14" value="" style="endArrow=classic;html=1;rounded=0;entryX=0;entryY=0.5;entryDx=0;entryDy=0;" edge="1" parent="1" source="nuHjkVe-DKdzuJ_XqGal-1" target="k6RIpt3aH43l9nmS450x-3">
          <mxGeometry width="50" height="50" relative="1" as="geometry">
            <mxPoint x="120" y="460" as="sourcePoint" />
            <mxPoint x="240" y="410" as="targetPoint" />
          </mxGeometry>
        </mxCell>
        <mxCell id="k6RIpt3aH43l9nmS450x-15" value="" style="endArrow=classic;html=1;rounded=0;entryX=0;entryY=0.5;entryDx=0;entryDy=0;" edge="1" parent="1" source="nuHjkVe-DKdzuJ_XqGal-1" target="k6RIpt3aH43l9nmS450x-4">
          <mxGeometry width="50" height="50" relative="1" as="geometry">
            <mxPoint x="140" y="500" as="sourcePoint" />
            <mxPoint x="190" y="450" as="targetPoint" />
          </mxGeometry>
        </mxCell>
        <mxCell id="k6RIpt3aH43l9nmS450x-16" value="" style="endArrow=classic;html=1;rounded=0;exitX=0.667;exitY=0.667;exitDx=0;exitDy=0;exitPerimeter=0;entryX=0;entryY=0.5;entryDx=0;entryDy=0;" edge="1" parent="1" source="nuHjkVe-DKdzuJ_XqGal-1" target="k6RIpt3aH43l9nmS450x-6">
          <mxGeometry width="50" height="50" relative="1" as="geometry">
            <mxPoint x="130" y="590" as="sourcePoint" />
            <mxPoint x="180" y="540" as="targetPoint" />
          </mxGeometry>
        </mxCell>
      </root>
    </mxGraphModel>
  </diagram>
</mxfile>
